# xmcd CD database file
#
# Track frame offsets:
#	150
#	20060
#	36858
#	53199
#	76633
#	101750
#	114931
#	131773
#	158556
#	179840
#	213881
#	236553
#	250352
#	260542
#
# Disc length: 3616 seconds
#
# Revision: 0
# Processed by: cddbd v1.5.2PL0 Copyright (c) Steve Scherf et al.
# Submitted via: CDex 1.70beta2
#
DISCID=bc0e1e0e
DTITLE=Christopher Dean Band - Call Me Later
DYEAR=2014
DGENRE=Blues
TTITLE0=Got My Whiskey
TTITLE1=On and Off
TTITLE2=Fall Never Came
TTITLE3=Cross-Eyed Cat
TTITLE4=Now I'm Glad
TTITLE5=Share Your Love With Me
TTITLE6=Red Cadillac
TTITLE7=Woman on Loan
TTITLE8=Hell at the House
TTITLE9=Same Thing
TTITLE10=Believe For Just a Day
TTITLE11=Get Yourself Together
TTITLE12=Honeymoom Blues
TTITLE13=Leadhearted Blues
EXTD=YEAR: 2014
EXTT0=
EXTT1=
EXTT2=
EXTT3=
EXTT4=
EXTT5=
EXTT6=
EXTT7=
EXTT8=
EXTT9=
EXTT10=
EXTT11=
EXTT12=
EXTT13=
PLAYORDER=
